<?xml version="1.0" encoding="iso-8859-1"?>
<!-- Generator: Adobe Illustrator 19.0.0, SVG Export Plug-In . SVG Version: 6.00 Build 0)  -->
<svg version="1.1" id="Layer_1" xmlns="http://www.w3.org/2000/svg" xmlns:xlink="http://www.w3.org/1999/xlink" x="0px" y="0px"
	 viewBox="0 0 511.999 511.999" style="enable-background:new 0 0 511.999 511.999;" xml:space="preserve">
<g>
	<g>
		<path d="M491.846,454.645h-13.902c5.069,8.39,7.549,18.357,6.575,28.81h7.327c7.955,0,14.405-6.449,14.405-14.405
			C506.252,461.095,499.802,454.645,491.846,454.645z"/>
	</g>
</g>
<g>
	<g>
		<path d="M396.899,454.645H351.18c5.069,8.388,7.549,18.357,6.575,28.81h32.567C389.349,473.005,391.829,463.036,396.899,454.645z"
			/>
	</g>
</g>
<g>
	<g>
		<path d="M277.307,240.106c0-7.956-6.449-14.405-14.405-14.405h-21.88c1.83,6.433,2.064,13.408,0.331,20.35
			c-0.744,2.978-1.824,5.808-3.184,8.46h10.327V469.05c0,7.956,6.449,14.405,14.405,14.405h0.656
			c-1.339-14.389,3.873-28.116,13.749-37.941V240.106z"/>
	</g>
</g>
<g>
	<g>
		<path d="M452.402,402.239H325.638c-5.729,0-10.372,4.643-10.372,10.372s4.643,10.372,10.372,10.372h126.764
			c5.729,0,10.372-4.643,10.372-10.372S458.131,402.239,452.402,402.239z"/>
	</g>
</g>
<g>
	<g>
		<path d="M452.402,369.972H325.638c-5.729,0-10.372,4.643-10.372,10.372c0,5.729,4.643,10.372,10.372,10.372h126.764
			c5.729,0,10.372-4.643,10.372-10.372C462.774,374.615,458.131,369.972,452.402,369.972z"/>
	</g>
</g>
<g>
	<g>
		<path d="M452.402,337.704H325.638c-5.729,0-10.372,4.643-10.372,10.372c0,5.729,4.643,10.372,10.372,10.372h126.764
			c5.729,0,10.372-4.643,10.372-10.372C462.774,342.348,458.131,337.704,452.402,337.704z"/>
	</g>
</g>
<g>
	<g>
		<path d="M452.402,305.437H325.638c-5.729,0-10.372,4.643-10.372,10.372c0,5.729,4.643,10.372,10.372,10.372h126.764
			c5.729,0,10.372-4.643,10.372-10.372C462.774,310.08,458.131,305.437,452.402,305.437z"/>
	</g>
</g>
<g>
	<g>
		<path d="M452.402,273.17H325.638c-5.729,0-10.372,4.643-10.372,10.372s4.643,10.372,10.372,10.372h126.764
			c5.729,0,10.372-4.643,10.372-10.372S458.131,273.17,452.402,273.17z"/>
	</g>
</g>
<g>
	<g>
		<circle cx="115.491" cy="44.591" r="44.591"/>
	</g>
</g>
<g>
	<g>
		<path d="M207.827,216.861c-7.187-1.794-60.616-15.128-67.803-16.923l-25.764-72.388l38.745,55.639l3.774-43.899
			c1.425-16.576-10.857-31.168-27.431-32.592l-53.52-4.601c-16.575-1.425-31.167,10.857-32.592,27.431l-11.86,154.099
			c0.037,0.314,14.573,93.131,14.573,93.131L7.314,479.194c-4.725,12.527,1.6,26.514,14.128,31.239
			c12.529,4.724,26.514-1.602,31.239-14.128L93.576,387.88c1.481-3.925,1.917-8.17,1.266-12.315
			c-1.248-7.947-12.154-77.409-13.763-87.662l12.788,1.099l38.682,85.594l26.948,118.528c2.968,13.053,15.956,21.233,29.015,18.266
			c13.055-2.969,21.232-15.958,18.266-29.015l-27.49-120.911c-0.361-1.584-0.879-3.128-1.549-4.609l-33.323-73.736l1.721-20.019
			l-31.104-7.763c-17.443-4.354-27.612-19.588-28.719-29.491l-9.175-82.09l28.449,79.935c2.207,6.2,7.397,11.145,14.142,12.828
			l78.312,19.544c10.054,2.512,20.36-2.999,23.873-12.716C226.013,232.015,219.43,219.757,207.827,216.861z"/>
	</g>
</g>
<g>
	<g>
		<path d="M330.381,453.446c-5.463-4.22-12.303-6.74-19.724-6.74c-17.816,0-32.331,14.52-32.331,32.331
			c0,17.96,14.659,32.33,32.331,32.33c17.822,0,32.33-14.515,32.33-32.331C342.987,468.632,338.04,459.364,330.381,453.446z
			 M310.657,491.267c-6.743,0-12.229-5.487-12.229-12.229c0-6.743,5.487-12.229,12.229-12.229c6.743,0,12.229,5.486,12.229,12.229
			C322.886,485.78,317.4,491.267,310.657,491.267z"/>
	</g>
</g>
<g>
	<g>
		<path d="M437.421,446.707c-17.816,0-32.331,14.52-32.331,32.331c0,17.96,14.659,32.33,32.331,32.33
			c17.759,0,32.33-14.443,32.33-32.331C469.752,461.19,455.201,446.707,437.421,446.707z M437.421,491.267
			c-6.743,0-12.229-5.487-12.229-12.229c0-6.743,5.487-12.229,12.229-12.229c6.743,0,12.229,5.486,12.229,12.229
			C449.65,485.78,444.165,491.267,437.421,491.267z"/>
	</g>
</g>
<g>
</g>
<g>
</g>
<g>
</g>
<g>
</g>
<g>
</g>
<g>
</g>
<g>
</g>
<g>
</g>
<g>
</g>
<g>
</g>
<g>
</g>
<g>
</g>
<g>
</g>
<g>
</g>
<g>
</g>
</svg>
